<?xml version="1.0" standalone="no"?>
<!DOCTYPE svg PUBLIC "-//W3C//DTD SVG 20010904//EN"
 "http://www.w3.org/TR/2001/REC-SVG-20010904/DTD/svg10.dtd">
<svg version="1.0" xmlns="http://www.w3.org/2000/svg"
 width="512.000000pt" height="512.000000pt" viewBox="0 0 512.000000 512.000000"
 preserveAspectRatio="xMidYMid meet">
<metadata>
Created by potrace 1.11, written by Peter Selinger 2001-2013
</metadata>
<g transform="translate(0.000000,512.000000) scale(0.100000,-0.100000)"
fill="#000000" stroke="none">
<path d="M2300 5089 c-103 -12 -268 -45 -368 -74 -88 -26 -295 -106 -346 -134
-17 -10 -52 -29 -78 -44 -213 -119 -389 -268 -533 -452 -70 -90 -138 -195
-127 -195 4 0 2 -4 -4 -8 -27 -18 -113 -232 -139 -347 -9 -39 -18 -77 -21 -85
-14 -37 -23 -319 -11 -327 4 -2 2 -13 -3 -24 -6 -10 -7 -19 -3 -19 4 0 8 -10
9 -22 1 -63 30 -191 66 -293 28 -81 97 -229 109 -233 5 -2 9 -8 9 -13 0 -18
118 -187 165 -235 5 -6 24 -26 41 -45 48 -53 179 -170 234 -209 19 -13 37 -27
40 -30 12 -13 137 -90 147 -90 6 0 13 -3 15 -7 2 -5 26 -20 53 -35 l50 -27 1
-298 c1 -276 2 -301 21 -343 39 -89 114 -153 219 -189 57 -20 78 -20 714 -18
l655 2 58 24 c72 30 156 109 188 176 23 49 23 56 24 347 0 163 2 298 5 301 3
2 37 21 75 42 67 37 174 104 185 115 3 3 21 17 40 30 45 30 184 154 230 204
60 66 71 79 114 136 104 136 223 373 239 475 1 11 5 25 9 30 3 6 9 30 13 55 4
25 9 54 11 65 13 71 16 113 16 217 0 65 -3 122 -6 127 -4 5 -2 13 4 16 7 4 7
11 2 18 -5 7 -12 30 -15 52 -12 77 -18 110 -24 125 -3 8 -7 22 -7 30 -1 8 -4
20 -7 25 -4 6 -14 35 -24 65 -10 30 -26 71 -36 91 -10 20 -15 39 -12 43 4 3 2
6 -3 6 -6 0 -19 19 -29 43 -43 96 -164 262 -272 372 -296 300 -673 482 -1158
560 -66 11 -454 13 -535 4z m470 -322 c14 -3 57 -10 95 -16 140 -23 363 -101
475 -165 25 -14 52 -29 60 -33 18 -8 133 -84 140 -92 3 -4 21 -18 41 -33 54
-40 172 -160 222 -226 72 -95 166 -265 183 -331 2 -9 11 -41 20 -71 19 -66 24
-94 27 -140 2 -20 5 -40 8 -45 5 -9 4 -214 -1 -225 -1 -3 -2 -8 -1 -13 1 -4
-4 -28 -10 -55 -6 -26 -13 -58 -15 -71 -3 -13 -14 -49 -25 -80 -11 -31 -21
-60 -23 -66 -1 -5 -17 -39 -35 -75 -19 -36 -39 -75 -45 -87 -6 -13 -14 -23
-18 -23 -5 0 -8 -5 -8 -11 0 -17 -105 -144 -177 -216 -118 -116 -233 -193
-445 -300 l-128 -63 0 -360 0 -360 -565 0 -564 0 0 348 c0 191 0 353 -1 360 0
6 -63 44 -141 82 -146 73 -215 114 -309 186 -66 51 -172 153 -220 213 -19 24
-40 48 -45 55 -18 19 -75 116 -75 126 0 6 -4 10 -8 10 -4 0 -13 12 -19 28 -6
15 -23 54 -38 87 -23 55 -38 101 -51 165 -3 14 -9 41 -13 60 -10 40 -10 36
-14 160 -3 86 0 122 19 230 11 64 42 170 55 186 5 6 6 14 2 17 -3 4 0 7 7 7 7
0 10 3 7 7 -14 14 133 260 177 295 11 10 18 18 14 18 -16 0 131 140 216 205
14 11 36 28 47 38 12 9 26 17 30 17 4 0 14 6 21 13 20 18 175 100 243 128 78
32 113 43 210 69 115 30 144 36 235 46 30 4 57 8 59 10 5 5 351 -3 381 -9z"/>
<path d="M2206 4692 c-2 -1 -16 -4 -32 -6 -134 -18 -257 -59 -337 -113 -50
-33 -137 -120 -129 -127 3 -3 -1 -6 -8 -6 -7 0 -11 -3 -7 -6 16 -17 -21 -34
-153 -68 -18 -5 -143 -75 -150 -84 -3 -4 -24 -24 -48 -44 -23 -21 -39 -38 -35
-38 4 0 -3 -9 -14 -20 -12 -11 -27 -35 -34 -55 -7 -19 -16 -35 -20 -35 -15 0
-33 -110 -33 -200 0 -96 20 -230 34 -230 4 0 11 -12 14 -26 4 -14 18 -49 31
-76 l24 -51 -21 -31 c-12 -17 -30 -41 -41 -53 -11 -13 -16 -23 -11 -23 5 0 2
-5 -6 -10 -12 -7 -15 -31 -15 -107 1 -112 2 -115 35 -164 37 -52 97 -102 163
-134 31 -15 57 -31 57 -35 0 -4 -8 -25 -17 -46 -17 -41 -25 -142 -11 -150 5
-3 6 -10 3 -15 -4 -5 -1 -9 4 -9 6 0 11 -6 11 -13 0 -50 138 -156 223 -172 20
-4 37 -10 37 -14 0 -4 10 -8 23 -8 64 -4 104 -16 125 -38 13 -14 20 -25 16
-25 -17 0 85 -88 116 -100 19 -7 40 -17 46 -22 6 -4 24 -9 40 -10 16 -1 34 -5
39 -8 6 -4 62 -6 125 -5 109 1 120 3 183 33 37 18 67 37 67 42 0 17 36 11 63
-10 56 -44 118 -63 210 -64 49 -1 91 3 94 7 3 5 11 6 18 3 7 -2 16 -2 20 2 4
4 10 7 13 8 11 1 62 23 117 49 56 27 114 84 134 133 15 37 10 34 81 38 62 3
196 36 244 61 102 52 150 188 98 281 -7 12 -10 22 -6 22 3 0 1 7 -6 15 -15 18
-16 17 35 40 174 79 253 206 221 355 -11 53 -27 90 -39 90 -6 0 -7 3 -4 6 4 4
-7 22 -24 41 -32 38 -32 52 2 109 10 17 16 34 12 37 -3 4 -1 7 5 7 6 0 9 7 6
15 -4 8 -2 15 4 15 26 0 64 312 40 327 -5 2 -8 15 -8 29 0 14 -7 41 -17 62 -9
20 -15 43 -14 50 1 6 -3 12 -8 12 -6 0 -18 15 -27 33 -15 30 -49 66 -105 112
-38 32 -79 56 -79 48 0 -5 -4 -3 -8 3 -11 18 -61 40 -134 59 -59 16 -71 23
-95 59 -15 22 -39 50 -52 60 -13 11 -31 28 -42 39 -36 39 -160 98 -259 123
-55 14 -112 19 -210 19 -122 0 -140 -2 -182 -23 -27 -13 -48 -28 -48 -33 0
-19 -46 -8 -89 21 -24 17 -55 30 -68 30 -12 0 -23 3 -23 8 0 6 -158 11 -164 4z
m194 -99 c36 -24 50 -40 50 -57 0 -9 4 -16 9 -16 4 0 6 -11 3 -25 -2 -14 0
-25 4 -25 5 0 9 -432 8 -977 -1 -1091 3 -1028 -70 -1074 -36 -22 -49 -24 -164
-24 -119 0 -128 2 -191 31 -65 31 -117 83 -104 104 3 5 2 10 -3 10 -5 0 -12 9
-15 20 -4 16 -14 20 -49 20 -129 1 -291 79 -333 160 -8 16 -15 53 -15 82 0 43
7 64 35 112 20 32 35 60 33 61 -2 1 -28 10 -58 20 -83 27 -144 61 -174 96 -32
38 -63 98 -61 119 1 8 -2 20 -5 25 -7 12 -6 23 4 46 4 9 6 20 4 25 -2 5 10 34
25 64 46 93 166 174 303 206 72 17 81 17 173 2 53 -9 110 -22 126 -29 17 -7
34 -13 38 -13 4 -1 12 -8 17 -16 5 -8 10 -11 10 -6 0 5 9 1 20 -9 11 -10 20
-14 20 -9 0 5 4 3 9 -5 7 -11 13 -10 35 4 14 10 26 25 26 35 0 23 -61 64 -130
87 -30 10 -57 21 -58 26 -2 4 -8 5 -12 2 -5 -3 -30 0 -57 6 -56 13 -209 18
-238 8 -11 -4 -47 -16 -80 -25 -33 -10 -78 -28 -100 -41 -41 -23 -81 -31 -70
-13 3 6 2 10 -2 10 -10 0 -43 86 -43 113 0 9 -4 17 -9 17 -5 0 -8 11 -5 25 2
14 1 25 -4 25 -12 0 -5 192 9 220 1 3 3 10 4 15 4 21 39 85 47 85 5 0 6 4 3
10 -12 19 108 122 185 158 41 19 84 36 95 37 11 1 22 4 25 5 3 1 14 4 25 5 11
1 26 3 32 3 7 1 26 25 42 53 28 49 117 133 154 145 9 3 17 10 17 15 0 6 4 8 9
4 5 -3 12 -1 16 5 4 6 11 8 16 5 5 -4 9 -2 9 3 0 5 6 9 13 10 6 0 31 8 54 16
97 36 293 41 343 9z m500 10 c14 -3 32 -7 40 -8 53 -6 90 -17 90 -27 0 -6 3
-9 6 -5 4 3 21 -1 38 -10 17 -10 33 -17 36 -16 3 1 41 -27 84 -63 43 -35 75
-64 71 -64 -5 0 -1 -8 7 -17 9 -10 19 -28 22 -40 8 -24 10 -25 61 -27 17 -1
36 -6 43 -10 7 -4 17 -4 22 -1 6 3 10 1 10 -4 0 -6 6 -11 13 -11 14 0 85 -35
138 -68 41 -25 91 -84 116 -136 9 -20 21 -36 25 -36 5 0 6 -5 3 -10 -4 -6 -2
-17 4 -23 19 -24 32 -148 21 -207 -6 -30 -11 -63 -11 -72 0 -10 -5 -20 -10
-23 -5 -4 -7 -11 -3 -16 3 -5 1 -15 -4 -22 -5 -7 -15 -28 -21 -48 -6 -20 -23
-47 -36 -59 -14 -13 -25 -28 -25 -33 0 -5 -14 -27 -31 -48 -66 -84 -204 -135
-386 -142 -72 -3 -113 -22 -113 -52 0 -34 110 -43 245 -20 22 4 46 7 53 8 6 0
12 4 12 9 0 5 4 7 10 3 5 -3 39 8 75 24 36 16 65 27 65 25 0 -3 23 13 51 35
58 46 75 50 84 21 3 -11 11 -20 16 -20 5 0 8 -3 7 -7 -1 -5 4 -21 11 -38 16
-37 10 -157 -7 -163 -7 -2 -12 -10 -12 -17 0 -17 -79 -92 -117 -112 -15 -8
-59 -25 -96 -38 -63 -21 -67 -24 -52 -39 9 -9 13 -16 8 -16 -4 0 -3 -4 2 -8
15 -10 35 -49 35 -67 0 -8 4 -15 9 -15 5 0 7 -9 4 -19 -3 -10 0 -28 6 -40 8
-15 8 -21 1 -21 -6 0 -10 -6 -8 -12 5 -22 -33 -74 -66 -91 -58 -30 -131 -49
-206 -54 -66 -5 -82 -2 -133 21 -65 29 -130 85 -148 127 -6 16 -16 29 -21 29
-5 0 -6 9 -3 20 4 12 2 20 -5 20 -6 0 -11 12 -9 28 5 69 -37 114 -77 81 -22
-18 -14 -142 12 -190 10 -19 17 -38 16 -42 -1 -4 5 -10 13 -13 8 -4 15 -12 15
-19 0 -19 85 -81 145 -106 61 -25 62 -34 6 -90 -63 -62 -183 -108 -282 -109
-76 0 -108 11 -152 52 l-42 39 0 992 c0 546 3 1008 8 1027 12 57 56 102 108
111 45 7 163 3 209 -8z"/>
<path d="M2149 4213 c-9 -2 -21 -21 -27 -41 -14 -45 -74 -105 -122 -122 -19
-6 -72 -16 -118 -20 -96 -10 -117 -21 -100 -54 16 -30 22 -32 85 -30 191 7
334 92 350 210 6 47 -21 70 -68 57z"/>
<path d="M1663 3243 c-20 -7 -15 -51 6 -63 11 -5 33 -10 50 -10 16 0 33 -5 36
-10 4 -6 11 -8 16 -5 10 7 75 -21 99 -41 61 -52 102 -102 95 -114 -4 -6 -2
-10 3 -10 10 0 28 -61 37 -130 7 -54 20 -70 55 -70 55 0 63 48 26 175 -40 138
-139 230 -291 271 -50 14 -109 17 -132 7z"/>
<path d="M2962 4110 c-22 -21 -23 -54 -3 -103 6 -16 11 -31 11 -35 0 -15 71
-94 105 -118 47 -32 144 -72 203 -85 40 -8 142 -13 205 -10 18 1 24 36 9 57
-4 6 -54 16 -112 22 -67 7 -120 18 -147 31 -23 12 -47 21 -53 21 -5 0 -10 5
-10 10 0 6 -6 10 -14 10 -7 0 -34 24 -60 54 -33 39 -49 68 -57 106 -6 28 -13
49 -16 46 -3 -3 -13 -1 -23 4 -12 7 -23 4 -38 -10z"/>
<path d="M1904 1119 c-30 -8 -101 -71 -93 -81 2 -3 -2 -12 -8 -20 -20 -23 -8
-94 21 -132 13 -18 42 -42 63 -52 36 -18 70 -19 663 -19 l625 0 37 23 c113 70
111 207 -4 269 l-40 22 -616 0 c-340 0 -631 -5 -648 -10z"/>
<path d="M1896 637 c-40 -18 -95 -69 -97 -91 0 -6 -3 -24 -5 -40 -3 -16 -2
-36 2 -45 4 -9 8 -19 8 -22 1 -4 12 -20 26 -36 28 -33 86 -63 123 -63 21 0 25
-6 31 -39 3 -22 11 -52 17 -68 6 -15 9 -28 8 -28 -2 0 6 -11 16 -24 46 -56 94
-95 155 -124 l65 -32 273 -3 c254 -3 278 -2 341 17 110 34 194 106 235 204 17
42 16 38 16 72 0 20 5 25 26 25 54 0 144 60 144 96 0 7 4 14 9 14 5 0 8 23 6
50 -3 54 -42 120 -71 120 -7 0 -14 4 -14 9 0 21 -94 25 -669 25 -560 1 -608 0
-645 -17z"/>
</g>
</svg>
